<svg width="90" height="87" viewBox="0 0 90 87" fill="none" xmlns="http://www.w3.org/2000/svg">
<path fill-rule="evenodd" clip-rule="evenodd" d="M36.2337 5.84839C39.4775 -1.94946 50.5225 -1.94946 53.7663 5.84839L60.6685 22.4409C61.1242 23.5359 62.1528 24.2859 63.3364 24.3808L81.2518 25.8177C89.67 26.4918 93.0815 36.9953 86.6698 42.4893L73.0204 54.1829C72.1184 54.9551 71.726 56.1641 72.0013 57.3192L76.1693 74.8011C78.1314 83.0167 69.1942 89.5074 61.985 85.1053L46.6488 75.7379C45.6361 75.1208 44.3639 75.1208 43.3512 75.7379L28.015 85.1053C20.8057 89.5074 11.8686 83.0167 13.8307 74.8011L17.9987 57.3192C18.274 56.1641 17.8816 54.9551 16.9796 54.1829L3.33024 42.4893C-3.08147 36.9953 0.330007 26.4918 8.74815 25.8177L26.6636 24.3808C27.8472 24.2859 28.8758 23.5359 29.3315 22.4409L36.2337 5.84839ZM47.9209 8.27872C46.8418 5.68049 43.1582 5.68049 42.0791 8.27872L35.1767 24.8714C33.8096 28.1596 30.7177 30.4066 27.1701 30.6882L9.25461 32.1249C6.44751 32.3496 5.31135 35.8529 7.4507 37.6821L21.097 49.3758C23.8028 51.6923 24.9832 55.3254 24.1572 58.7876L19.9861 76.2695C19.3342 79.0069 22.3123 81.1717 24.7143 79.7032L40.0503 70.3356C43.0884 68.4811 46.9116 68.4811 49.9497 70.3356L65.2857 79.7032C67.6877 81.1717 70.6658 79.0069 70.0139 76.2695L65.8428 58.7876C65.0168 55.3254 66.1972 51.6923 68.903 49.3758L82.5493 37.6821C84.6886 35.8529 83.5525 32.3496 80.7454 32.1249L62.8299 30.6882C59.2823 30.4066 56.1904 28.1596 54.8233 24.8714L47.9209 8.27872Z" fill="#EE2277"/>
</svg>
