<svg width="90" height="71" viewBox="0 0 90 71" fill="none" xmlns="http://www.w3.org/2000/svg">
<path fill-rule="evenodd" clip-rule="evenodd" d="M77.1305 65.0833C80.9111 65.0833 83.8235 62.0957 83.3132 58.7528L76.8057 16.1524C75.911 10.2949 70.3014 5.91667 63.6745 5.91667H26.3255C19.6986 5.91667 14.089 10.2949 13.1943 16.1524L6.68678 58.7528C6.17651 62.0957 9.08891 65.0833 12.8695 65.0833C15.1359 65.0833 17.2268 63.9888 18.3269 62.2138L30.2685 43.0143C32.0213 40.2039 35.348 38.4583 38.9596 38.4583H51.0404C54.652 38.4583 57.9787 40.2039 59.7315 43.0143L71.6731 62.2138C72.7732 63.9888 74.8641 65.0833 77.1305 65.0833ZM89.8804 57.954C90.9308 64.8469 84.927 71 77.1305 71C72.4552 71 68.151 68.7517 65.8813 65.0833L53.9364 45.8838C53.3532 44.9667 52.2432 44.375 51.0404 44.375H38.9596C37.7568 44.375 36.6468 44.9667 36.0636 45.8838L24.1187 65.0833C21.849 68.7517 17.5448 71 12.8695 71C5.07302 71 -0.930794 64.8469 0.119565 57.954L6.62712 15.3536C7.97237 6.56733 16.3852 0 26.3255 0H63.6745C73.6148 0 82.0276 6.56733 83.3729 15.3536L89.8804 57.954Z" fill="#EE2277"/>
</svg>
