<svg width="90" height="90" viewBox="0 0 90 90" fill="none" xmlns="http://www.w3.org/2000/svg">
<path fill-rule="evenodd" clip-rule="evenodd" d="M32.1686 12.044C32.5864 5.32289 38.1729 0 45 0C51.8271 0 57.4136 5.32289 57.8314 12.044C58.3039 12.2272 58.77 12.42 59.2296 12.6225C64.2793 8.16751 71.9904 8.35076 76.8215 13.1818C81.6494 18.0097 81.8325 25.7207 77.3775 30.7703C77.58 31.23 77.7728 31.6961 77.956 32.1686C84.6771 32.5864 90 38.1729 90 45C90 51.8271 84.6771 57.4136 77.956 57.8314C77.7728 58.3039 77.58 58.77 77.3775 59.2296C81.8325 64.2793 81.6492 71.9903 76.8182 76.8182C71.9903 81.6492 64.2793 81.8325 59.2296 77.3775C58.77 77.58 58.3039 77.7728 57.8314 77.956C57.4136 84.6771 51.8271 90 45 90C38.1729 90 32.5864 84.6771 32.1686 77.956C31.6961 77.7728 31.23 77.58 30.7703 77.3775C25.7207 81.8325 18.0097 81.6492 13.1818 76.8182C8.35076 71.9903 8.16751 64.2793 12.6225 59.2296C12.42 58.77 12.2272 58.3039 12.044 57.8314C5.32289 57.4136 0 51.8271 0 45C0 38.1729 5.32289 32.5864 12.044 32.1686C12.2272 31.6961 12.42 31.23 12.6225 30.7703C8.16751 25.7207 8.35076 18.0097 13.1818 13.1818C18.0097 8.35076 25.7207 8.16751 30.7703 12.6225C31.23 12.42 31.6961 12.2272 32.1686 12.044ZM17.7268 26.8168C19.3597 28.4529 19.6586 30.8699 18.7554 32.8081C18.4147 33.5474 18.1029 34.2996 17.82 35.0678C17.0872 37.0767 15.1682 38.5714 12.8571 38.5714C9.30536 38.5714 6.42857 41.4482 6.42857 45C6.42857 48.5518 9.30536 51.4286 12.8571 51.4286C15.1682 51.4286 17.0872 52.9233 17.82 54.9322C18.1029 55.7004 18.4147 56.4526 18.7554 57.1919C19.6586 59.1301 19.3597 61.5471 17.7268 63.1832C15.2165 65.6935 15.2165 69.7628 17.7268 72.2732C20.2372 74.7835 24.3065 74.7835 26.8168 72.2732C28.4529 70.6403 30.8699 70.3414 32.8081 71.2446C33.5474 71.5853 34.2996 71.8971 35.0678 72.18C37.0767 72.9128 38.5714 74.8318 38.5714 77.1429C38.5714 80.6946 41.4482 83.5714 45 83.5714C48.5518 83.5714 51.4286 80.6946 51.4286 77.1429C51.4286 74.8318 52.9233 72.9128 54.9322 72.18C55.7004 71.8971 56.4558 71.5853 57.1919 71.2446C59.1301 70.3414 61.5471 70.6403 63.1832 72.2732C65.6935 74.7835 69.7628 74.7835 72.2732 72.2732C74.7835 69.7628 74.7835 65.6935 72.2732 63.1832C70.6403 61.5471 70.3414 59.1301 71.2446 57.1919C71.5853 56.4526 71.8971 55.7004 72.18 54.9322C72.9128 52.9233 74.8318 51.4286 77.1429 51.4286C80.6946 51.4286 83.5714 48.5518 83.5714 45C83.5714 41.4482 80.6946 38.5714 77.1429 38.5714C74.8318 38.5714 72.9128 37.0767 72.18 35.0678C71.8971 34.2996 71.5853 33.5474 71.2446 32.8081C70.3414 30.8699 70.6403 28.4529 72.2732 26.8168C74.7835 24.3065 74.7835 20.2372 72.2732 17.7268C69.7628 15.2165 65.6935 15.2165 63.1832 17.7268C61.5471 19.3597 59.1301 19.6586 57.1919 18.7554C56.4558 18.4147 55.7004 18.1029 54.9322 17.82C52.9233 17.0872 51.4286 15.1682 51.4286 12.8571C51.4286 9.30536 48.5518 6.42857 45 6.42857C41.4482 6.42857 38.5714 9.30536 38.5714 12.8571C38.5714 15.1682 37.0767 17.0872 35.0678 17.82C34.2996 18.1029 33.5442 18.4147 32.8081 18.7554C30.8699 19.6586 28.4529 19.3597 26.8168 17.7268C24.3065 15.2165 20.2372 15.2165 17.7268 17.7268C15.2165 20.2372 15.2165 24.3065 17.7268 26.8168Z" fill="#EE2277"/>
<path fill-rule="evenodd" clip-rule="evenodd" d="M45.0001 32.1428C37.8997 32.1428 32.1429 37.8996 32.1429 44.9999C32.1429 52.1003 37.8997 57.8571 45.0001 57.8571C52.1004 57.8571 57.8572 52.1003 57.8572 44.9999C57.8572 37.8996 52.1004 32.1428 45.0001 32.1428ZM25.7144 44.9999C25.7144 34.3478 34.3479 25.7142 45.0001 25.7142C55.6522 25.7142 64.2858 34.3478 64.2858 44.9999C64.2858 55.6521 55.6522 64.2857 45.0001 64.2857C34.3479 64.2857 25.7144 55.6521 25.7144 44.9999Z" fill="#EE2277"/>
</svg>
