<svg width="36" height="36" viewBox="0 0 36 36" fill="none" xmlns="http://www.w3.org/2000/svg">
<path fill-rule="evenodd" clip-rule="evenodd" d="M20.5714 0C23.6829 0 26.28 2.20886 26.8715 5.14286H29.5714C33.12 5.14286 36 8.02157 36 11.5714V29.5714C36 33.12 33.12 36 29.5714 36H6.42857C2.88 36 0 33.12 0 29.5714V11.5714C0 8.02157 2.88 5.14286 6.42857 5.14286H9.12854C9.71997 2.20886 12.3171 0 15.4286 0H20.5714ZM20.5714 2.57143C22.2557 2.57143 23.6828 3.645 24.2099 5.14286H11.7901C12.3172 3.645 13.7443 2.57143 15.4286 2.57143H20.5714ZM33.4286 11.5714C33.4286 9.441 31.7057 7.71429 29.5714 7.71429H6.42857C4.29429 7.71429 2.57143 9.441 2.57143 11.5714V18H13.5515C14.4386 16.4623 16.0971 15.4286 18 15.4286C19.9029 15.4286 21.5614 16.4623 22.4485 18H33.4286V11.5714ZM23.1429 20.5714C23.1429 23.4129 20.8414 25.7143 18 25.7143C15.1586 25.7143 12.8571 23.4129 12.8571 20.5714H2.57143V29.5714C2.57143 31.7057 4.29429 33.4286 6.42857 33.4286H29.5714C31.7057 33.4286 33.4286 31.7057 33.4286 29.5714V20.5714H23.1429ZM15.4286 20.5714C15.4286 19.1507 16.5857 18 18 18C19.4143 18 20.5714 19.1507 20.5714 20.5714C20.5714 21.9857 19.4143 23.1429 18 23.1429C16.5857 23.1429 15.4286 21.9857 15.4286 20.5714Z" fill="white"/>
</svg>
