<svg width="38" height="38" viewBox="0 0 38 38" fill="none" xmlns="http://www.w3.org/2000/svg">
<path d="M37.3334 7.4867L28.9001 0.410034L26.5351 3.21503L34.9684 10.2917L37.3334 7.4867ZM11.4467 3.21503L9.10008 0.410034L0.666748 7.46837L3.03175 10.2734L11.4467 3.21503ZM19.9167 11.6667H17.1667V22.6667L25.8751 27.8917L27.2501 25.6367L19.9167 21.2917V11.6667ZM19.0001 4.33337C9.88842 4.33337 2.50008 11.7217 2.50008 20.8334C2.50008 29.945 9.87008 37.3334 19.0001 37.3334C28.1117 37.3334 35.5001 29.945 35.5001 20.8334C35.5001 11.7217 28.1117 4.33337 19.0001 4.33337ZM19.0001 33.6667C11.9051 33.6667 6.16675 27.9284 6.16675 20.8334C6.16675 13.7384 11.9051 8.00003 19.0001 8.00003C26.0951 8.00003 31.8334 13.7384 31.8334 20.8334C31.8334 27.9284 26.0951 33.6667 19.0001 33.6667Z" fill="white" fill-opacity="0.87"/>
</svg>
