<svg width="36" height="36" viewBox="0 0 36 36" fill="none" xmlns="http://www.w3.org/2000/svg">
<path d="M11.2443 32.2275C6.32636 29.9025 2.79414 25.14 2.25941 19.5H0C0.768201 28.74 8.52552 36 18 36C18.3389 36 18.6628 35.97 18.9941 35.9475L13.2552 30.225L11.2443 32.2275ZM12.5849 22.44C12.2987 22.44 12.0351 22.4025 11.7941 22.3125C11.5607 22.23 11.3573 22.11 11.1916 21.96C11.0259 21.81 10.8979 21.6225 10.8075 21.4125C10.7172 21.195 10.672 20.9625 10.672 20.7075H8.71381C8.71381 21.2475 8.81925 21.72 9.03012 22.1325C9.241 22.545 9.51966 22.89 9.87364 23.16C10.2276 23.4375 10.6343 23.64 11.1013 23.7825C11.5682 23.9325 12.0502 24 12.5623 24C13.1197 24 13.6393 23.925 14.1213 23.775C14.6033 23.625 15.0176 23.4 15.3715 23.1075C15.7255 22.815 15.9967 22.455 16.2 22.0275C16.3958 21.6 16.5013 21.1125 16.5013 20.565C16.5013 20.2725 16.4636 19.995 16.3958 19.725C16.3205 19.455 16.2075 19.2 16.0569 18.96C15.8987 18.72 15.6954 18.51 15.4469 18.315C15.1983 18.1275 14.8895 17.97 14.5356 17.8425C14.8368 17.7075 15.1004 17.5425 15.3264 17.3475C15.5523 17.1525 15.7406 16.9425 15.8912 16.725C16.0418 16.5 16.1548 16.275 16.2301 16.035C16.3054 15.795 16.3431 15.555 16.3431 15.3225C16.3431 14.775 16.2527 14.295 16.072 13.8825C15.8912 13.47 15.6351 13.125 15.3038 12.8475C14.9724 12.57 14.5808 12.36 14.1138 12.2175C13.6318 12.0675 13.1197 12 12.5623 12C12.0201 12 11.5155 12.0825 11.0561 12.24C10.5967 12.3975 10.205 12.6225 9.87364 12.9075C9.54226 13.1925 9.28619 13.53 9.09791 13.92C8.90962 14.31 8.81925 14.7375 8.81925 15.195H10.7774C10.7774 14.94 10.8226 14.715 10.913 14.52C11.0033 14.3175 11.1314 14.145 11.2895 14.01C11.4477 13.8675 11.6435 13.755 11.8619 13.68C12.0803 13.605 12.3213 13.56 12.5774 13.56C13.1799 13.56 13.6243 13.7175 13.918 14.025C14.2117 14.3325 14.3548 14.7675 14.3548 15.3225C14.3548 15.5925 14.3172 15.8325 14.2343 16.05C14.1515 16.2675 14.031 16.455 13.8653 16.6125C13.6996 16.77 13.4887 16.89 13.2477 16.98C12.9992 17.07 12.7054 17.115 12.3741 17.115H11.2142V18.6525H12.3741C12.7054 18.6525 13.0067 18.69 13.2703 18.765C13.5339 18.84 13.7598 18.9525 13.9481 19.1175C14.1364 19.275 14.2795 19.4775 14.3849 19.7175C14.4828 19.9575 14.5356 20.2425 14.5356 20.5725C14.5356 21.18 14.3623 21.645 14.0084 21.9675C13.6695 22.2825 13.195 22.44 12.5849 22.44ZM25.4787 13.5525C25.0042 13.0575 24.4318 12.675 23.769 12.405C23.0987 12.135 22.3682 12 21.5623 12H18V24H21.4569C22.2929 24 23.046 23.865 23.7314 23.595C24.4167 23.325 24.9967 22.9425 25.4787 22.4475C25.9607 21.9525 26.3372 21.3525 26.5933 20.655C26.8569 19.9575 26.9849 19.17 26.9849 18.3V17.7075C26.9849 16.8375 26.8494 16.0575 26.5858 15.3525C26.3222 14.6475 25.9531 14.0475 25.4787 13.5525ZM24.8837 18.3075C24.8837 18.93 24.8159 19.5 24.6653 19.995C24.5222 20.4975 24.3113 20.9175 24.0251 21.2625C23.7389 21.6075 23.3849 21.87 22.9556 22.0575C22.5264 22.2375 22.0293 22.335 21.4569 22.335H20.0937V13.68H21.5623C22.6469 13.68 23.4678 14.025 24.0402 14.7075C24.605 15.3975 24.8912 16.3875 24.8912 17.6925V18.3075H24.8837ZM18 0C17.6611 0 17.3372 0.03 17.0059 0.0525L22.7448 5.775L24.7481 3.78C29.6736 6.0975 33.2059 10.86 33.7406 16.5H36C35.2318 7.26 27.4745 0 18 0Z" fill="white" fill-opacity="0.87"/>
</svg>
