<svg width="90" height="90" viewBox="0 0 90 90" fill="none" xmlns="http://www.w3.org/2000/svg">
<rect width="90" height="90" fill="white"/>
<path d="M45 85.3125C22.7625 85.3125 4.6875 67.2375 4.6875 45C4.6875 22.7625 22.7625 4.6875 45 4.6875C67.2375 4.6875 85.3125 22.7625 85.3125 45C85.3125 67.2375 67.2375 85.3125 45 85.3125ZM45 10.3125C25.875 10.3125 10.3125 25.875 10.3125 45C10.3125 64.125 25.875 79.6875 45 79.6875C64.125 79.6875 79.6875 64.125 79.6875 45C79.6875 25.875 64.125 10.3125 45 10.3125Z" fill="#EE2277"/>
<path d="M45 62.8125C35.175 62.8125 27.1875 54.825 27.1875 45C27.1875 35.175 35.175 27.1875 45 27.1875C54.825 27.1875 62.8125 35.175 62.8125 45C62.8125 54.825 54.825 62.8125 45 62.8125ZM45 32.8125C38.2875 32.8125 32.8125 38.2875 32.8125 45C32.8125 51.7125 38.2875 57.1875 45 57.1875C51.7125 57.1875 57.1875 51.7125 57.1875 45C57.1875 38.2875 51.7125 32.8125 45 32.8125Z" fill="#EE2277"/>
<path d="M79.3874 32.8125C79.1999 32.8125 78.9749 32.775 78.7874 32.7375C67.7624 30.3375 56.6249 30.3375 45.5999 32.7375C44.0624 33.075 42.5999 32.1 42.2624 30.6C41.9249 29.0625 42.8999 27.6 44.3999 27.2625C56.2124 24.675 68.1749 24.675 79.9874 27.2625C81.4874 27.6 82.4624 29.1 82.1249 30.6C81.8624 31.9125 80.6999 32.8125 79.3874 32.8125Z" fill="#EE2277"/>
<path d="M32.0251 55.3125C31.2376 55.3125 30.4501 54.9749 29.8876 54.3374C22.0876 45.3749 16.1626 35.1374 12.2251 23.8874L14.8126 22.725L17.4751 21.825L17.5501 22.05C21.2251 32.5875 26.8126 42.225 34.1626 50.6624C35.1751 51.8249 35.0626 53.6249 33.9001 54.6374C33.3376 55.0874 32.6626 55.3125 32.0251 55.3125Z" fill="#EE2277"/>
<path d="M40.7999 85.0875C40.1249 85.0875 39.4499 84.8625 38.9249 84.375C37.7624 83.325 37.6874 81.5625 38.7374 80.4C46.2374 72.15 51.7874 62.5875 55.2374 51.975C55.7249 50.5125 57.3749 49.5375 58.8374 50.025C60.2999 50.5125 61.1624 51.9375 60.7124 53.4C56.9249 65.1 50.9624 75.375 42.9374 84.225C42.3374 84.7875 41.5499 85.0875 40.7999 85.0875Z" fill="#EE2277"/>
</svg>
