<svg width="435" height="296" viewBox="0 0 435 296" fill="none" xmlns="http://www.w3.org/2000/svg">
<path opacity="0.5" d="M39.6 254.8L37.4371 256.879L37.4423 256.884L37.4476 256.89L39.6 254.8ZM39.6 41.2L37.4476 39.1102L37.4423 39.1156L37.4371 39.1211L39.6 41.2ZM240 41.2L237.837 43.2789L237.842 43.2843L237.848 43.2897L240 41.2ZM240 254.8L237.848 252.71L237.842 252.716L237.837 252.721L240 254.8ZM94.8 88.4L97.1158 90.3071L94.8 88.4ZM185.2 88.4L182.884 90.3071L185.2 88.4ZM41.7629 252.721C15.98 225.896 3 191.082 3 148H-3C-3 192.385 10.42 228.77 37.4371 256.879L41.7629 252.721ZM3 148C3 104.918 15.98 70.1035 41.7629 43.2789L37.4371 39.1211C10.42 67.2298 -3 103.615 -3 148H3ZM41.7524 43.2897C67.8223 16.4378 100.497 2.99999 140 2.99999V-3.00001C98.9693 -3.00001 64.7111 11.0288 37.4476 39.1102L41.7524 43.2897ZM140 2.99999C179.502 2.99999 212.038 16.4372 237.837 43.2789L242.163 39.1211C215.162 11.0295 181.031 -3.00001 140 -3.00001V2.99999ZM237.848 43.2897C263.892 70.1159 277 104.927 277 148H283C283 103.607 269.441 67.2174 242.152 39.1102L237.848 43.2897ZM277 148C277 191.073 263.892 225.884 237.848 252.71L242.152 256.89C269.441 228.783 283 192.393 283 148H277ZM237.837 252.721C212.038 279.563 179.502 293 140 293V299C181.031 299 215.162 284.971 242.163 256.879L237.837 252.721ZM140 293C100.497 293 67.8223 279.562 41.7524 252.71L37.4476 256.89C64.7111 284.971 98.9693 299 140 299V293ZM92.4842 86.4929C80.672 100.836 75 121.496 75 148H81C81 122.238 86.528 103.164 97.1158 90.3071L92.4842 86.4929ZM75 148C75 174.504 80.672 195.164 92.4842 209.507L97.1158 205.693C86.528 192.836 81 173.762 81 148H75ZM92.4842 209.507C104.301 223.856 120.247 231 140 231V225C121.887 225 107.699 218.544 97.1158 205.693L92.4842 209.507ZM140 231C159.753 231 175.699 223.856 187.516 209.507L182.884 205.693C172.301 218.544 158.113 225 140 225V231ZM187.516 209.507C199.328 195.164 205 174.504 205 148H199C199 173.762 193.472 192.836 182.884 205.693L187.516 209.507ZM205 148C205 121.496 199.328 100.836 187.516 86.4929L182.884 90.3071C193.472 103.164 199 122.238 199 148H205ZM187.516 86.4929C175.699 72.144 159.753 65 140 65V71C158.113 71 172.301 77.456 182.884 90.3071L187.516 86.4929ZM140 65C120.247 65 104.301 72.144 92.4842 86.4929L97.1158 90.3071C107.699 77.456 121.887 71 140 71V65ZM308.109 126H305.109V131.668L309.796 128.481L308.109 126ZM308.109 48L306.406 45.5304L305.109 46.4247V48H308.109ZM366.109 7.99998V4.99998H365.175L364.406 5.53034L366.109 7.99998ZM434.109 7.99998H437.109V4.99998H434.109V7.99998ZM434.109 288V291H437.109V288H434.109ZM358.109 288H355.109V291H358.109V288ZM358.109 92H361.109V86.3321L356.422 89.5192L358.109 92ZM311.109 126V48H305.109V126H311.109ZM309.813 50.4696L367.813 10.4696L364.406 5.53034L306.406 45.5304L309.813 50.4696ZM366.109 11H434.109V4.99998H366.109V11ZM431.109 7.99998V288H437.109V7.99998H431.109ZM434.109 285H358.109V291H434.109V285ZM361.109 288V92H355.109V288H361.109ZM356.422 89.5192L306.422 123.519L309.796 128.481L359.796 94.4808L356.422 89.5192Z" fill="url(#paint0_linear_727_2173)"/>
<defs>
<linearGradient id="paint0_linear_727_2173" x1="222.5" y1="35" x2="222.5" y2="297" gradientUnits="userSpaceOnUse">
<stop stop-color="#882A48"/>
<stop offset="1" stop-color="#EE2277"/>
</linearGradient>
</defs>
</svg>
