<svg width="38" height="38" viewBox="0 0 38 38" fill="none" xmlns="http://www.w3.org/2000/svg">
<path d="M19.0001 10.8569C16.7472 10.8569 14.9286 12.6754 14.9286 14.9283C14.9286 15.6747 14.3179 16.2854 13.5715 16.2854C12.8251 16.2854 12.2144 15.6747 12.2144 14.9283C12.2144 11.1826 15.2544 8.14258 19.0001 8.14258C22.7458 8.14258 25.7858 11.1826 25.7858 14.9283C25.7858 16.964 24.4694 18.5247 23.3023 19.6511C22.7866 20.1397 22.2301 20.6147 21.7279 21.0354C21.6329 21.1169 21.538 21.1983 21.4566 21.2662C21.0359 21.6326 20.6558 21.9583 20.3572 22.2569C20.3029 22.9626 19.7194 23.5189 19.0001 23.5189C18.2536 23.5189 17.6429 22.9218 17.6429 22.1618V21.714C17.6429 21.3883 17.7651 21.0625 17.9822 20.8182C18.4844 20.2482 19.1087 19.7055 19.6922 19.2033C19.7872 19.1219 19.8822 19.0404 19.9772 18.959H19.9908C20.4929 18.5247 20.968 18.1176 21.4158 17.6833C22.5287 16.6248 23.0715 15.7561 23.0715 14.9283C23.0715 12.6754 21.2529 10.8569 19.0001 10.8569Z" fill="#EE2277"/>
<path d="M20.3572 27.1428C20.3572 27.8892 19.7465 28.4999 19.0001 28.4999C18.2537 28.4999 17.6429 27.8892 17.6429 27.1428C17.6429 26.3964 18.2537 25.7856 19.0001 25.7856C19.7465 25.7856 20.3572 26.3964 20.3572 27.1428Z" fill="#EE2277"/>
<path fill-rule="evenodd" clip-rule="evenodd" d="M19 0C8.50928 0 0 8.45507 0 18.9051C0 29.3415 8.4278 38 18.9457 38C24.2114 38 29.4364 37.9458 34.7021 37.8915L36.6021 37.8779C37.0364 37.8779 37.4572 37.6607 37.7015 37.2943C37.9593 36.9278 38.0136 36.4664 37.8643 36.0592L35.2042 28.7849C36.9821 25.9078 38 22.5286 38 18.9051C38 8.45507 29.4907 0 19 0ZM2.71429 18.9051C2.71429 9.97507 10.0021 2.71429 19 2.71429C27.9979 2.71429 35.2857 9.97507 35.2857 18.9051C35.2857 22.2165 34.2814 25.2972 32.5714 27.8622C32.3271 28.2286 32.2729 28.6765 32.4222 29.0836L34.6479 35.1772C29.3958 35.2315 24.1978 35.2857 18.9457 35.2857C9.96138 35.2857 2.71429 27.8758 2.71429 18.9051Z" fill="#EE2277"/>
</svg>
