<svg width="89" height="90" viewBox="0 0 89 90" fill="none" xmlns="http://www.w3.org/2000/svg">
<path fill-rule="evenodd" clip-rule="evenodd" d="M53.6065 6.42857C52.6449 6.42857 51.7559 6.94925 51.2736 7.7946L51.2514 7.82992L31.8248 39.9408V83.5714H68.9663C70.2337 83.5714 71.3307 82.6746 71.605 81.4146L71.6144 81.3632L82.3366 38.6711C82.6834 36.9643 81.4066 35.3571 79.6916 35.3571H63.3514C60.8387 35.3571 58.3481 34.4989 56.5606 32.7214C54.6973 30.8668 53.8241 28.215 54.3852 25.3125L57.4086 9.71682C57.7396 8.01325 56.4596 6.42857 54.7572 6.42857H53.6065ZM25.5194 83.5714V42.2454H9.57321C8.0883 42.2454 6.884 43.4668 6.87139 44.9808L6.60344 80.7942C6.59083 82.3242 7.80459 83.5714 9.30526 83.5714H25.5194ZM26.913 35.8168L45.8478 4.5193C47.4683 1.71966 50.416 0 53.6065 0H54.7572C60.432 0 64.6945 5.28753 63.5942 10.964L60.574 26.5565C60.4195 27.344 60.6369 27.7972 60.9648 28.1219C61.3715 28.5269 62.1754 28.9286 63.3514 28.9286H79.6916C85.4547 28.9286 89.7328 34.3703 88.4844 40.1046L88.4719 40.156L77.7464 82.8644C76.81 87.0365 73.1688 90 68.9663 90H9.30526C4.30513 90 0.260283 85.847 0.298115 80.746L0.566064 44.9294C0.603896 39.8862 4.62668 35.8168 9.57321 35.8168H26.913Z" fill="white"/>
</svg>
