<svg width="24" height="24" viewBox="0 0 24 24" fill="none" xmlns="http://www.w3.org/2000/svg">
<path fill-rule="evenodd" clip-rule="evenodd" d="M13.5716 7.76597L10.0883 4.63401C8.51774 3.22106 6 4.3237 6 6.42438V17.5756C6 19.6763 8.51774 20.7789 10.0883 19.366L13.5716 16.2341H13.9444C15.6311 16.2341 17 14.8798 17 13.2097V10.7903C17 9.12027 15.6311 7.76597 13.9444 7.76597H13.5716ZM9.26949 5.5292C8.48115 4.82272 7.22222 5.37373 7.22222 6.42438V17.5756C7.22222 18.6263 8.48115 19.1773 9.26949 18.4708L12.9178 15.1858C13.0278 15.0854 13.1744 15.0243 13.3333 15.0243H13.9444C14.9589 15.0243 15.7778 14.212 15.7778 13.2097V10.7903C15.7778 9.78804 14.9589 8.97571 13.9444 8.97571H13.3333C13.1744 8.97571 13.0278 8.91458 12.9178 8.81538L9.26949 5.5292Z" fill="#EE2277"/>
<path d="M9.52638 13.4731L12.4727 10.5269" stroke="#EE2277" stroke-width="1.2" stroke-linecap="round"/>
<path d="M9.52638 10.5269L12.4727 13.4731" stroke="#EE2277" stroke-width="1.2" stroke-linecap="round"/>
</svg>
