<svg width="24" height="24" viewBox="0 0 24 24" fill="none" xmlns="http://www.w3.org/2000/svg">
<path fill-rule="evenodd" clip-rule="evenodd" d="M16.5716 7.76597L13.0883 4.63401C11.5177 3.22106 9 4.3237 9 6.42438V17.5756C9 19.6763 11.5177 20.7789 13.0883 19.366L16.5716 16.2341H16.9444C18.6311 16.2341 20 14.8798 20 13.2097V10.7903C20 9.12027 18.6311 7.76597 16.9444 7.76597H16.5716ZM12.2695 5.5292C11.4812 4.82272 10.2222 5.37373 10.2222 6.42438V17.5756C10.2222 18.6263 11.4812 19.1773 12.2695 18.4708L15.9178 15.1858C16.0278 15.0854 16.1744 15.0243 16.3333 15.0243H16.9444C17.9589 15.0243 18.7778 14.212 18.7778 13.2097V10.7903C18.7778 9.78804 17.9589 8.97571 16.9444 8.97571H16.3333C16.1744 8.97571 16.0278 8.91458 15.9178 8.81538L12.2695 5.5292Z" fill="#EE2277"/>
<path d="M6.13159 6.35751C6.40016 6.18351 6.74877 6.27111 6.91448 6.55311C7.0802 6.83571 6.99444 7.20533 6.72587 7.37873C5.1773 8.38312 4.14302 10.1831 4.14302 12.2357C4.14302 14.2883 5.1773 16.0883 6.72587 17.0927C6.99444 17.2661 7.0802 17.6357 6.91448 17.9183C6.74877 18.2003 6.40016 18.2879 6.13159 18.1139C4.25159 16.9007 3.00016 14.7221 3.00016 12.2357C3.00016 9.74932 4.25159 7.57072 6.13159 6.35751Z" fill="#EE2277"/>
<path d="M6.62915 10.281C6.86915 10.065 7.22911 10.0932 7.43483 10.3446C7.64054 10.5954 7.61189 10.9746 7.37189 11.1906C7.18332 11.3634 7.00054 11.7378 7.00054 12.2358C7.00054 12.7338 7.18332 13.1082 7.37189 13.281C7.61189 13.497 7.64054 13.8762 7.43483 14.127C7.22911 14.3784 6.86915 14.4066 6.62915 14.1906C6.13201 13.7436 5.85769 13.0062 5.85769 12.2358C5.85769 11.4654 6.13201 10.728 6.62915 10.281Z" fill="#EE2277"/>
</svg>
