<svg width="20" height="24" viewBox="0 0 20 24" fill="none" xmlns="http://www.w3.org/2000/svg">
<path d="M9.76533 8.58759L7.86381 10.342C8.11343 11.2274 8.46462 12.0791 8.90999 12.8791C9.37352 13.6736 9.93115 14.4059 10.5701 15.0592L13.0326 14.2789C14.4122 13.8415 15.9183 14.2907 16.8357 15.4138L18.2383 17.1304C18.8061 17.8196 19.0908 18.709 19.032 19.6102C18.9732 20.5115 18.5756 21.3538 17.9233 21.9587C15.6355 24.1056 12.1129 24.8315 9.47562 22.7011C7.15775 20.8243 5.19657 18.5238 3.69057 15.9151C2.18126 13.3187 1.17118 10.4482 0.715268 7.45974C0.209422 4.09746 2.603 1.40669 5.58749 0.489269C7.36716 -0.0592891 9.26638 0.881772 9.91938 2.63621L10.6896 4.70513C11.1955 6.06707 10.8322 7.60161 9.76533 8.58523V8.58759Z" fill="white"/>
</svg>
