<svg width="1413" height="195" viewBox="0 0 1413 195" fill="none" xmlns="http://www.w3.org/2000/svg">
<path opacity="0.5" d="M0.0700014 195L0.0700014 0.399987L150.19 0.399987V47.66L51.5 47.66L51.5 76.85L130.73 76.85V118.55L51.5 118.55V147.74L150.19 147.74V195L0.0700014 195ZM179.25 195L179.25 0.399987L241.8 0.399987L309.91 122.72H312.69L308.52 97.7V0.399987L359.95 0.399987V195H297.4L229.29 72.68H226.51L230.68 97.7L230.68 195H179.25ZM380.876 47.66V0.399987L554.626 0.399987V47.66L493.466 47.66V195H442.036V47.66H380.876ZM575.345 195V0.399987L725.465 0.399987V47.66L626.775 47.66V76.85H706.005V118.55H626.775V147.74L725.465 147.74V195L575.345 195ZM754.525 195V0.399987L851.825 0.399987C874.992 0.399987 893.71 6.97932 907.981 20.138C922.437 33.1113 929.665 49.2353 929.665 68.51C929.665 93.53 916.692 112.99 890.745 126.89L931.055 195H875.455L840.705 136.62H805.955V195H754.525ZM805.955 89.36H850.435C858.404 89.36 864.798 87.3213 869.617 83.244C874.436 79.1667 876.845 74.2553 876.845 68.51C876.845 62.7647 874.436 57.8533 869.617 53.776C864.798 49.6987 858.404 47.66 850.435 47.66H805.955V89.36ZM1020.19 0.399987L1073.01 0.399987L1109.15 147.74H1127.22L1163.36 0.399987L1216.18 0.399987L1166.14 195H1070.23L1020.19 0.399987ZM1235.6 195V0.399987L1332.9 0.399987C1356.06 0.399987 1374.78 6.97932 1389.05 20.138C1403.51 33.1113 1410.74 49.2353 1410.74 68.51C1410.74 93.53 1397.76 112.99 1371.82 126.89L1412.13 195H1356.53L1321.78 136.62H1287.03V195L1235.6 195ZM1287.03 89.36H1331.51C1339.47 89.36 1345.87 87.3213 1350.69 83.244C1355.51 79.1667 1357.92 74.2553 1357.92 68.51C1357.92 62.7647 1355.51 57.8533 1350.69 53.776C1345.87 49.6987 1339.47 47.66 1331.51 47.66L1287.03 47.66V89.36Z" fill="#454545"/>
</svg>
