<svg width="39" height="39" viewBox="0 0 39 39" fill="none" xmlns="http://www.w3.org/2000/svg">
<path fill-rule="evenodd" clip-rule="evenodd" d="M0 19.1131C0 28.5628 7.04113 36.4206 16.25 38.014V24.2862H11.375V19.007H16.25V14.7827C16.25 10.031 19.3911 7.39215 23.8339 7.39215C25.2411 7.39215 26.7589 7.60281 28.1661 7.81347V12.6713H25.675C23.2911 12.6713 22.75 13.8324 22.75 15.3117V19.007H27.95L27.0839 24.2862H22.75V38.014C31.9589 36.4206 39 28.5644 39 19.1131C39 8.60068 30.225 0 19.5 0C8.775 0 0 8.60068 0 19.1131Z" fill="url(#paint0_linear_728_538)"/>
<defs>
<linearGradient id="paint0_linear_728_538" x1="19.5" y1="0" x2="19.5" y2="38.014" gradientUnits="userSpaceOnUse">
<stop stop-color="#882A48"/>
<stop offset="1" stop-color="#EE2277"/>
</linearGradient>
</defs>
</svg>
