<svg width="35" height="36" viewBox="0 0 35 36" fill="none" xmlns="http://www.w3.org/2000/svg">
<path d="M17.4953 11.9974C14.2819 11.9974 11.6596 14.6948 11.6596 18C11.6596 21.3052 14.2819 24.0026 17.4953 24.0026C20.7087 24.0026 23.331 21.3052 23.331 18C23.331 14.6948 20.7087 11.9974 17.4953 11.9974ZM34.998 18C34.998 15.5143 35.0199 13.0512 34.8842 10.57C34.7485 7.68803 34.1093 5.1303 32.0605 3.02288C30.0073 0.910954 27.525 0.258013 24.7232 0.118418C22.3066 -0.0211759 19.9119 0.0013394 17.4997 0.0013394C15.0831 0.0013394 12.6884 -0.0211759 10.2762 0.118418C7.47434 0.258013 4.9877 0.915457 2.93886 3.02288C0.885633 5.13481 0.250841 7.68803 0.115127 10.57C-0.0205873 13.0557 0.00130217 15.5188 0.00130217 18C0.00130217 20.4812 -0.0205873 22.9488 0.115127 25.43C0.250841 28.312 0.890011 30.8697 2.93886 32.9771C4.99208 35.089 7.47434 35.742 10.2762 35.8816C12.6928 36.0212 15.0875 35.9987 17.4997 35.9987C19.9163 35.9987 22.311 36.0212 24.7232 35.8816C27.525 35.742 30.0116 35.0845 32.0605 32.9771C34.1137 30.8652 34.7485 28.312 34.8842 25.43C35.0243 22.9488 34.998 20.4857 34.998 18ZM17.4953 27.2357C12.5264 27.2357 8.51627 23.111 8.51627 18C8.51627 12.889 12.5264 8.76426 17.4953 8.76426C22.4642 8.76426 26.4743 12.889 26.4743 18C26.4743 23.111 22.4642 27.2357 17.4953 27.2357ZM26.8421 10.543C25.6819 10.543 24.7451 9.57931 24.7451 8.386C24.7451 7.1927 25.6819 6.22905 26.8421 6.22905C28.0022 6.22905 28.9391 7.1927 28.9391 8.386C28.9394 8.66936 28.8854 8.95 28.7801 9.21186C28.6749 9.47371 28.5204 9.71163 28.3256 9.912C28.1308 10.1124 27.8995 10.2712 27.645 10.3795C27.3904 10.4878 27.1175 10.5433 26.8421 10.543Z" fill="#EE2277"/>
</svg>
