<svg width="37" height="38" viewBox="0 0 37 38" fill="none" xmlns="http://www.w3.org/2000/svg">
<path d="M18.5 0C8.2826 0 0 8.28566 0 18.5068C0 28.728 8.2826 37.0137 18.5 37.0137C28.7174 37.0137 37 28.728 37 18.5068C37 8.28566 28.7174 0 18.5 0ZM25.6148 20.8799C25.6148 20.8799 27.2509 22.4954 27.6536 23.2454C27.6652 23.2608 27.671 23.2762 27.6748 23.2839C27.8386 23.5596 27.8772 23.7736 27.7962 23.9336C27.6614 24.1996 27.1989 24.3307 27.0408 24.3423H24.1502C23.9498 24.3423 23.5297 24.2902 23.0209 23.9394C22.6297 23.6656 22.2443 23.2164 21.8685 22.7788C21.3078 22.1272 20.8221 21.5643 20.3327 21.5643C20.2705 21.5642 20.2087 21.574 20.1496 21.5932C19.7796 21.7128 19.3055 22.241 19.3055 23.6483C19.3055 24.0878 18.9586 24.3403 18.7139 24.3403H17.39C16.9391 24.3403 14.5899 24.1823 12.5087 21.9865C9.96109 19.2972 7.66786 13.9033 7.64859 13.8531C7.50406 13.5042 7.80276 13.3172 8.12844 13.3172H11.048C11.4372 13.3172 11.5644 13.5543 11.6531 13.7645C11.7571 14.0093 12.1387 14.9828 12.765 16.0778C13.7806 17.8629 14.403 18.5878 14.9021 18.5878C14.9957 18.5867 15.0876 18.5629 15.17 18.5184C15.8214 18.156 15.6999 15.833 15.671 15.351C15.671 15.2604 15.6691 14.3119 15.3357 13.857C15.0968 13.5273 14.6902 13.402 14.4435 13.3558C14.5433 13.2179 14.6749 13.1062 14.827 13.03C15.2741 12.8063 16.0796 12.7736 16.8793 12.7736H17.3245C18.1917 12.7851 18.4152 12.841 18.7293 12.9201C19.3653 13.0724 19.3787 13.483 19.3229 14.8884C19.3055 15.2874 19.2882 15.7385 19.2882 16.2706C19.2882 16.3863 19.2824 16.5096 19.2824 16.6407C19.2631 17.3559 19.24 18.1675 19.7449 18.501C19.8108 18.5424 19.8869 18.5644 19.9646 18.5647C20.1399 18.5647 20.668 18.5647 22.0979 16.1106C22.5388 15.3207 22.9221 14.4999 23.2445 13.6546C23.2734 13.6044 23.3582 13.4502 23.4584 13.3905C23.5323 13.3527 23.6143 13.3336 23.6973 13.3346H27.1295C27.5033 13.3346 27.7596 13.3905 27.8078 13.535C27.8926 13.7645 27.7924 14.4642 26.2257 16.5867L25.5261 17.5102C24.1059 19.3724 24.1059 19.4669 25.6148 20.8799Z" fill="url(#paint0_linear_728_539)"/>
<defs>
<linearGradient id="paint0_linear_728_539" x1="18.5" y1="0" x2="18.5" y2="37.0137" gradientUnits="userSpaceOnUse">
<stop stop-color="#882A48"/>
<stop offset="1" stop-color="#EE2277"/>
</linearGradient>
</defs>
</svg>
