<svg width="37" height="38" viewBox="0 0 37 38" fill="none" xmlns="http://www.w3.org/2000/svg">
<path d="M21.5891 18.1849L17.2609 16.1646C16.8832 15.9891 16.5729 16.1858 16.5729 16.6041V20.4096C16.5729 20.8279 16.8832 21.0245 17.2609 20.8491L21.5872 18.8288C21.9668 18.6514 21.9668 18.3622 21.5891 18.1849ZM18.5 0C8.2826 0 0 8.28566 0 18.5068C0 28.728 8.2826 37.0137 18.5 37.0137C28.7174 37.0137 37 28.728 37 18.5068C37 8.28566 28.7174 0 18.5 0ZM18.5 26.0252C9.03031 26.0252 8.86458 25.1712 8.86458 18.5068C8.86458 11.8424 9.03031 10.9884 18.5 10.9884C27.9697 10.9884 28.1354 11.8424 28.1354 18.5068C28.1354 25.1712 27.9697 26.0252 18.5 26.0252Z" fill="url(#paint0_linear_728_537)"/>
<defs>
<linearGradient id="paint0_linear_728_537" x1="18.5" y1="0" x2="18.5" y2="37.0137" gradientUnits="userSpaceOnUse">
<stop stop-color="#882A48"/>
<stop offset="1" stop-color="#EE2277"/>
</linearGradient>
</defs>
</svg>
