<svg width="623" height="1059" viewBox="0 0 623 1059" fill="none" xmlns="http://www.w3.org/2000/svg">
<path d="M44.5 52.5H339.5C449.957 52.5 539.5 142.043 539.5 252.5V1030.5H244.5C134.043 1030.5 44.5 940.957 44.5 830.5V52.5Z" fill="url(#paint0_linear_26_8)"/>
<path d="M35.7186 76.0906L575.949 1.76641C604.048 -2.09942 626.943 24.0304 619.417 51.3777L499.485 487.217C498.169 492.003 497.743 496.99 498.229 501.929L548.681 1014.63C550.967 1037.86 532.715 1058 509.371 1058H69.272C47.9361 1058 30.4563 1041.06 29.7912 1019.73L1.62149 116.453C0.991696 96.2587 15.7028 78.8443 35.7186 76.0906Z" stroke="white"/>
<defs>
<linearGradient id="paint0_linear_26_8" x1="292" y1="52.5" x2="292" y2="1030.5" gradientUnits="userSpaceOnUse">
<stop stop-color="#882A48"/>
<stop offset="1" stop-color="#EE2277"/>
</linearGradient>
</defs>
</svg>
