<svg width="950" height="896" viewBox="0 0 950 896" fill="none" xmlns="http://www.w3.org/2000/svg">
<path d="M522.792 456.917C662.052 445.352 707.846 442.064 719.897 587.187C731.949 732.31 770.546 883.303 631.287 894.868C492.028 906.432 369.366 798.162 357.315 653.039C345.263 507.916 383.533 468.481 522.792 456.917Z" fill="url(#paint0_linear_52_39)"/>
<path d="M106 265.361C106 154.904 195.543 65.3613 306 65.3613H741C766.405 65.3613 787 85.9562 787 111.361V717.361C787 768.724 745.362 810.361 694 810.361H306C195.543 810.361 106 720.818 106 610.361V265.361Z" fill="url(#paint1_linear_52_39)"/>
<path d="M245.192 779L245.04 778.524C155.325 807.186 67.0586 730.792 82.5559 637.893L104.311 507.481C108.291 483.623 108.863 459.32 106.01 435.3L90.0005 300.537C77.0963 191.91 154.072 93.1522 262.562 79.1449L507.67 47.4983L734.077 35.5541C754.962 34.4523 772.5 51.0896 772.5 72.0034V767.297C772.5 806.674 738.005 837.15 698.928 832.298L624.944 823.111C595.096 819.404 566.05 810.87 538.941 797.842L478.256 768.678C438.244 749.449 392.878 744.411 349.622 754.392L245.08 778.513L245.192 779Z" stroke="white"/>
<path d="M390.893 149.575C366.596 89.9977 358.847 70.3292 425.072 43.3212C491.298 16.3132 556.668 -23.2591 580.964 36.3182C605.261 95.8954 571.271 166.087 505.046 193.095C438.82 220.103 415.189 209.152 390.893 149.575Z" fill="url(#paint2_linear_52_39)"/>
<path d="M501.035 30.6799L529.532 2.60972M529.319 30.8932L501.248 2.39641" stroke="white"/>
<path d="M204.373 727.619L220.124 712.104M219.875 727.604L204.622 712.119" stroke="white"/>
<path d="M702.347 757.877C686.757 762.837 671.175 762.651 658.593 758.363C646.01 754.075 636.46 745.702 632.831 734.298C629.203 722.894 632.159 710.541 639.95 699.771C647.741 689.001 660.35 679.845 675.941 674.884C691.524 669.926 702.303 671.631 710.096 677.339C717.924 683.073 722.847 692.92 726.527 704.486C730.207 716.052 731.879 726.933 728.804 736.136C725.743 745.298 717.93 752.918 702.347 757.877Z" stroke="white"/>
<path d="M748.618 139.654C728.435 146.076 707.806 137.388 702.42 120.462C697.035 103.536 708.851 84.5247 729.034 78.1027C739.094 74.9018 746.166 76.4445 751.407 80.8213C756.692 85.2348 760.198 92.5941 762.938 101.206C765.678 109.819 767.07 117.851 765.307 124.507C763.559 131.107 758.678 136.453 748.618 139.654Z" stroke="white"/>
<defs>
<linearGradient id="paint0_linear_52_39" x1="360.704" y1="693.857" x2="728.135" y2="663.345" gradientUnits="userSpaceOnUse">
<stop stop-color="#882A48"/>
<stop offset="1" stop-color="#EE2277"/>
</linearGradient>
<linearGradient id="paint1_linear_52_39" x1="446.5" y1="65.3613" x2="446.5" y2="810.361" gradientUnits="userSpaceOnUse">
<stop stop-color="#882A48"/>
<stop offset="1" stop-color="#EE2277"/>
</linearGradient>
<linearGradient id="paint2_linear_52_39" x1="523.673" y1="185.498" x2="459.567" y2="28.3056" gradientUnits="userSpaceOnUse">
<stop stop-color="#882A48"/>
<stop offset="1" stop-color="#EE2277"/>
</linearGradient>
</defs>
</svg>
