<svg width="832" height="738" viewBox="0 0 832 738" fill="none" xmlns="http://www.w3.org/2000/svg">
<path d="M618.24 560.77C625.948 550.263 636.327 542.011 648.301 536.87L727.219 502.988C752.166 492.277 769.109 468.606 771.202 441.538L778.087 352.506C778.958 341.241 777.203 329.928 772.959 319.457L699.294 137.7C695.544 128.448 689.937 120.064 682.819 113.066L611.637 43.0798C597.973 29.6455 579.574 22.1224 560.412 22.1342L455.154 22.1988L361.323 22.2563C348.708 22.2641 336.31 25.5408 325.339 31.7669L266.036 65.4197C243.171 78.3953 229.049 102.664 229.065 128.954L229.197 343.725L229.387 653.563C229.415 697.802 268.471 731.85 312.301 725.842L348 720.949C361.619 719.082 374.434 713.408 384.971 704.579L438.483 659.74C449.6 650.425 463.239 644.633 477.661 643.102L532.541 637.275C552.971 635.106 571.542 624.428 583.694 607.862L618.24 560.77Z" fill="url(#paint0_linear_49_21)"/>
<path d="M145.222 272.025C157.931 236.195 183.771 206.526 217.519 189.019L257.221 168.422C293.062 149.829 332.189 138.417 372.406 134.826L455.393 127.417C471.26 126 486.604 121.025 500.284 112.862L568.239 72.3118C609.968 47.4112 657.657 34.2642 706.25 34.2642V34.2642C754.713 34.2642 794 73.551 794 122.014V588.264C794 632.999 757.735 669.264 713 669.264H232.884C146.652 669.264 78.1756 596.732 83.1317 510.643L86.3524 454.699C87.1136 441.476 89.7474 428.428 94.1749 415.945L145.222 272.025Z" fill="url(#paint1_linear_49_21)"/>
<path d="M830.485 111.999L826.387 563.106C825.905 616.142 781.454 658.157 728.475 655.652L654.531 652.156C627.997 650.902 601.443 654.184 576.013 661.862L381.084 720.715C346.038 731.296 309.192 734.571 272.829 730.337L210.959 723.133C119.528 712.487 59.3453 622.536 84.3899 533.96L116.319 421.036C122.068 400.701 124.377 379.548 123.15 358.452L118.653 281.161C114.4 208.056 191.108 157.937 256.349 191.195C346.779 237.293 457.429 207.322 512.23 121.885L534.589 87.0267C551.124 61.2491 574.284 40.3846 601.64 26.6185C635.42 9.62019 672.715 0.76416 710.53 0.76416H720.256C781.528 0.76416 831.042 50.7298 830.485 111.999Z" stroke="white"/>
<path d="M260.347 358.779C244.757 363.74 229.175 363.553 216.593 359.266C204.01 354.978 194.46 346.604 190.831 335.201C187.203 323.797 190.159 311.444 197.95 300.674C205.741 289.903 218.35 280.747 233.941 275.787C249.524 270.829 260.303 272.533 268.096 278.242C275.924 283.976 280.847 293.822 284.527 305.388C288.207 316.955 289.879 327.835 286.804 337.038C283.743 346.2 275.93 353.821 260.347 358.779Z" stroke="white"/>
<path d="M736.035 118.583L764.532 90.5125M764.319 118.796L736.248 90.2992" stroke="white"/>
<path d="M315.266 701.423L329.514 687.388M329.408 701.53L315.373 687.282" stroke="white"/>
<defs>
<linearGradient id="paint0_linear_49_21" x1="779.439" y1="379.431" x2="229.219" y2="379.769" gradientUnits="userSpaceOnUse">
<stop stop-color="#882A48"/>
<stop offset="1" stop-color="#EE2277"/>
</linearGradient>
<linearGradient id="paint1_linear_49_21" x1="104" y1="145.264" x2="794" y2="612.264" gradientUnits="userSpaceOnUse">
<stop stop-color="#882A48"/>
<stop offset="1" stop-color="#EE2277"/>
</linearGradient>
</defs>
</svg>
