<svg width="752" height="526" viewBox="0 0 752 526" fill="none" xmlns="http://www.w3.org/2000/svg">
<path d="M77.8253 212.329C105.94 159.64 160.801 126.731 220.522 126.731H235.012C264.577 126.731 293.716 119.679 320.01 106.161L366.819 82.0954C404.726 62.6067 446.734 52.4404 489.358 52.4404L696 52.4404C726.928 52.4404 752 77.5125 752 108.44V429.3C752 465.198 722.899 494.3 687 494.3L123.933 494.3C85.6345 494.3 61.6183 452.933 80.6075 419.673V419.673C88.9628 405.039 89.3659 387.176 81.6791 372.18L65.5169 340.649C48.28 307.021 48.6094 267.083 66.3987 233.744L77.8253 212.329Z" fill="url(#paint0_linear_27_2)"/>
<path d="M682.726 248.474C705.652 356.526 636.435 461.688 528.126 483.361L344.372 520.131C317.295 525.549 290.698 508.043 284.966 481.03L231.268 227.954C214.646 149.617 264.829 73.3742 343.353 57.6612L433.953 39.5319C542.263 17.8588 648.651 87.8822 671.577 195.934L682.726 248.474Z" fill="url(#paint1_linear_27_2)"/>
<path d="M738.497 100.362L724.608 391.632C723.619 412.378 709.529 430.192 689.569 435.932L508.136 488.113C504.027 489.295 499.828 490.135 495.581 490.624L270.773 516.51C218.653 522.512 166.144 509.149 123.233 478.963L87.4347 453.78C55.947 431.63 36.4708 396.164 34.6755 357.708L34.1267 345.953C32.4967 311.037 48.6935 277.679 77.1395 257.366L87.5391 249.94C105.802 236.899 116.641 215.84 116.641 193.399C116.641 151.662 150.476 117.827 192.213 117.827L239.917 117.827C261.032 117.827 281.799 112.447 300.258 102.195L371.331 62.7212C400.866 46.3171 433.242 35.6566 466.746 31.3035L568.959 18.0232C579.077 16.7086 589.325 16.7523 599.432 18.153L679.48 29.248C714.588 34.1141 740.186 64.9585 738.497 100.362Z" stroke="white"/>
<path d="M423.018 79.7865L437.266 66.1567M437.159 79.89L423.124 66.0531" stroke="white"/>
<path d="M719.969 182.148C702.099 195.459 674.622 189.99 658.616 169.727C642.61 149.464 644.289 122.274 662.158 108.962C666.629 105.632 670.991 104.002 675.257 103.718C679.526 103.434 683.743 104.495 687.926 106.615C696.314 110.865 704.5 119.334 712.561 129.54C720.623 139.746 726.926 149.618 728.98 158.587C730.004 163.06 729.967 167.29 728.579 171.22C727.191 175.148 724.44 178.817 719.969 182.148Z" stroke="white"/>
<path d="M190.018 487.656L204.266 474.027M204.159 487.76L190.124 473.923" stroke="white"/>
<defs>
<linearGradient id="paint0_linear_27_2" x1="395" y1="52.4404" x2="395" y2="494.3" gradientUnits="userSpaceOnUse">
<stop stop-color="#882A48"/>
<stop offset="1" stop-color="#EE2277"/>
</linearGradient>
<linearGradient id="paint1_linear_27_2" x1="509.791" y1="487.03" x2="420.773" y2="42.1692" gradientUnits="userSpaceOnUse">
<stop stop-color="#882A48"/>
<stop offset="1" stop-color="#EE2277"/>
</linearGradient>
</defs>
</svg>
