<svg width="764" height="606" viewBox="0 0 764 606" fill="none" xmlns="http://www.w3.org/2000/svg">
<path d="M500.911 186.85C565.375 185.366 619.653 234.747 624.253 299.063C624.253 299.064 624.253 299.064 624.253 299.065L624.695 305.874C627.865 354.686 611.087 402.695 578.205 438.909L569.873 448.084C560.968 457.892 553.163 468.645 546.598 480.151L523.749 520.198C507.311 549.009 481.894 571.647 451.38 584.654C410.252 602.185 365.015 607.765 320.859 600.754L299.087 597.296C280.252 594.306 262.023 588.292 245.106 579.487C235.907 574.699 228.945 566.503 225.707 556.65L107.186 195.916L237.156 192.923L361.514 190.06L490.063 187.1L500.911 186.85Z" fill="url(#paint0_linear_33_11)" stroke="url(#paint1_radial_33_11)"/>
<path d="M325.017 592.159L339.266 578.124M339.159 592.266L325.124 578.018" stroke="white"/>
<path d="M427.107 314.05L135.114 531.233L94.4215 409.012L55.4795 292.05L15.2249 171.145L8.96938 152.356C-9.63765 96.4699 18.7582 35.7972 73.5902 14.2815C118.733 -3.06197 169.148 -0.20386 212.042 22.1307L218.342 25.411C230.313 31.6445 242.943 36.5232 255.996 39.9566L289.061 48.6536C323.706 57.766 354.855 76.9809 378.545 103.852L383.247 109.186C408.184 137.474 423.636 172.861 427.432 210.379L431.272 248.331C432.778 263.214 432.428 278.227 430.23 293.024L427.107 314.05Z" fill="url(#paint2_linear_33_11)" stroke="url(#paint3_radial_33_11)"/>
<path d="M705.253 193.935C684.692 131.419 635.272 82.638 572.494 62.8932V62.8932C545.46 54.3908 516.954 51.6063 488.786 54.7168L381.036 66.6155C354.718 69.5216 328.215 70.378 301.765 69.1768L149.992 62.2841C99.8759 60.0082 58 100.025 58 150.194V474C58 507.137 84.8629 534 118 534H678.835C727.386 534 764.118 490.087 755.542 442.3V442.3C753.861 432.939 753.909 423.349 755.682 414.005L759.467 394.056C767.571 351.345 760.617 307.146 739.789 268.988L724.834 241.589C718.291 229.603 712.854 217.046 708.587 204.074L705.253 193.935Z" fill="url(#paint4_linear_33_11)"/>
<path d="M147.5 73V73.5C77.3599 73.5 20.5001 130.36 20.5001 200.5V442.76C20.5001 489.636 61.8984 525.716 108.335 519.311C126.686 516.78 145.305 516.89 163.624 519.638L350.416 547.657C360.797 549.214 371.306 549.742 381.791 549.235L532.816 541.922C578.301 539.72 621.506 521.356 654.657 490.136L655 490.5L654.706 490.095L680.697 471.218C717.529 444.466 736.66 399.625 730.484 354.525C729.164 344.881 728.979 335.116 729.933 325.429L730.655 318.096C736.814 255.553 710.998 194.126 662.011 154.759L646.055 141.936C636.471 134.234 627.515 125.738 619.316 116.576C570.508 62.0346 498.236 34.2932 425.487 42.3262L335.174 52.2988L335.172 52.299L147.556 73.4968L147.5 73Z" stroke="white"/>
<path d="M155.347 210.515C139.757 215.476 124.175 215.289 111.593 211.001C99.0101 206.714 89.4598 198.34 85.8314 186.936C82.2029 175.533 85.1585 163.18 92.9498 152.41C100.741 141.639 113.35 132.483 128.941 127.523C144.524 122.564 155.303 124.269 163.096 129.978C170.924 135.712 175.847 145.558 179.527 157.124C183.207 168.691 184.879 179.571 181.804 188.774C178.743 197.936 170.93 205.557 155.347 210.515Z" stroke="white"/>
<path d="M683.035 418.319L711.532 390.248M711.319 418.532L683.248 390.035" stroke="white"/>
<defs>
<linearGradient id="paint0_linear_33_11" x1="400.169" y1="622.312" x2="390.271" y2="192.426" gradientUnits="userSpaceOnUse">
<stop stop-color="#882A48"/>
<stop offset="1" stop-color="#EE2277"/>
</linearGradient>
<radialGradient id="paint1_radial_33_11" cx="0" cy="0" r="1" gradientUnits="userSpaceOnUse" gradientTransform="translate(170.526 591.089) rotate(-38.4986) scale(613.089 1232.67)">
<stop stop-color="#EE2277"/>
<stop offset="1" stop-color="#EE2277" stop-opacity="0"/>
</radialGradient>
<linearGradient id="paint2_linear_33_11" x1="421.397" y1="140.246" x2="49.0761" y2="264.208" gradientUnits="userSpaceOnUse">
<stop stop-color="#882A48"/>
<stop offset="1" stop-color="#EE2277"/>
</linearGradient>
<radialGradient id="paint3_radial_33_11" cx="0" cy="0" r="1" gradientUnits="userSpaceOnUse" gradientTransform="translate(461.442 365.966) rotate(-143.347) scale(590.484 1157.52)">
<stop stop-color="#EE2277"/>
<stop offset="1" stop-color="#EE2277" stop-opacity="0"/>
</radialGradient>
<linearGradient id="paint4_linear_33_11" x1="415" y1="50" x2="415" y2="534" gradientUnits="userSpaceOnUse">
<stop stop-color="#882A48"/>
<stop offset="1" stop-color="#EE2277"/>
</linearGradient>
</defs>
</svg>
