<svg width="737" height="521" viewBox="0 0 737 521" fill="none" xmlns="http://www.w3.org/2000/svg">
<path d="M647.443 400.807L268.915 516.736L268.555 386.731L268.211 262.342L267.855 133.759L267.825 122.908C267.646 58.4271 318.116 5.16041 382.513 1.8639C382.513 1.86387 382.514 1.86384 382.514 1.86381L389.331 1.55969C438.198 -0.620659 485.857 17.1253 521.397 50.7347L530.402 59.2502C540.027 68.3524 550.62 76.3735 561.991 83.1702L597.736 104.536C628.834 123.123 653.619 150.639 668.867 183.503L670.671 187.391C687.809 224.331 691.953 265.981 682.429 305.573L674.623 338.024C670.901 353.494 665.151 368.404 657.52 382.367L647.443 400.807Z" fill="url(#paint0_linear_32_2)" stroke="url(#paint1_radial_32_2)"/>
<path d="M719.732 183.762L735.613 468.297C737.165 496.102 715.037 519.5 687.189 519.5H552H374H190H124.777C59.8437 519.5 5.9869 469.245 1.49896 404.468C-1.60745 352.577 21.8126 302.651 63.7017 271.868L87.2171 254.587C98.2647 246.468 108.357 237.124 117.3 226.732L157.146 180.438C178.819 155.257 207.022 136.546 238.647 126.367L307.995 104.045C335.616 95.1552 364.972 93.0546 393.576 97.9217L489.366 114.22C508.003 117.391 527.022 117.631 545.733 114.931L622.154 103.903C671.811 96.7376 716.937 133.669 719.732 183.762Z" fill="url(#paint2_linear_32_2)" stroke="url(#paint3_radial_32_2)"/>
<path d="M569.951 508.993L569.934 508.992L569.917 508.993L348.856 515.499L208.536 500.465C199.364 499.482 190.28 497.797 181.365 495.426L121.84 479.592C82.6838 469.176 50.8325 440.729 36.0761 402.994C32.6282 394.177 30.1754 385.003 28.7633 375.642L25.9442 356.953C21.7699 329.281 26.537 300.999 39.5517 276.224C52.5413 251.497 73.0706 231.551 98.1618 219.279L169.365 184.455C179.444 179.525 189.045 173.671 198.044 166.968L272.854 111.244C304.011 88.0358 341.826 75.5 380.678 75.5H458.102C484.027 75.5 509.648 81.0848 533.221 91.8742L603.433 124.01L603.466 124.025L603.502 124.035L644.971 136.053C686.189 147.998 715.441 184.575 718.034 227.41L728.025 392.505C732.01 458.348 678.276 513.238 612.363 510.655L569.951 508.993Z" stroke="white"/>
<path d="M697.479 237C697.479 252.448 684.512 265 668.479 265C652.447 265 639.479 252.448 639.479 237C639.479 233.136 640.29 230.073 641.728 227.646C643.166 225.22 645.25 223.397 647.851 222.041C653.075 219.318 660.345 218.5 668.479 218.5C676.614 218.5 683.884 219.318 689.108 222.041C691.709 223.397 693.793 225.22 695.231 227.646C696.669 230.073 697.479 233.136 697.479 237Z" stroke="white"/>
<path d="M47.9972 480.159L62.2456 466.124M62.1389 480.266L48.1038 466.018" stroke="white"/>
<path d="M436.997 44.1593L451.246 30.1242M451.139 44.2659L437.104 30.0175" stroke="white"/>
<defs>
<linearGradient id="paint0_linear_32_2" x1="701.157" y1="232.448" x2="271.159" y2="233.638" gradientUnits="userSpaceOnUse">
<stop stop-color="#882A48"/>
<stop offset="1" stop-color="#EE2277"/>
</linearGradient>
<radialGradient id="paint1_radial_32_2" cx="0" cy="0" r="1" gradientUnits="userSpaceOnUse" gradientTransform="translate(665.291 461.412) rotate(-127.338) scale(613.089 1232.67)">
<stop stop-color="#EE2277"/>
<stop offset="1" stop-color="#EE2277" stop-opacity="0"/>
</radialGradient>
<linearGradient id="paint2_linear_32_2" x1="367.5" y1="90" x2="367.5" y2="520" gradientUnits="userSpaceOnUse">
<stop stop-color="#882A48"/>
<stop offset="1" stop-color="#EE2277"/>
</linearGradient>
<radialGradient id="paint3_radial_32_2" cx="0" cy="0" r="1" gradientUnits="userSpaceOnUse" gradientTransform="translate(695 126.5) rotate(152.074) scale(791.12 1366.98)">
<stop stop-color="#EE2277"/>
<stop offset="1" stop-color="#EE2277" stop-opacity="0"/>
</radialGradient>
</defs>
</svg>
