<svg width="776" height="643" viewBox="0 0 776 643" fill="none" xmlns="http://www.w3.org/2000/svg">
<path d="M537.366 520.062C546.029 510.672 557.002 503.717 569.19 499.892L638.553 478.124C665.009 469.821 684.489 447.253 688.834 419.871L699.048 355.509C700.955 343.491 699.828 331.189 695.769 319.721L641.148 165.412C637.725 155.74 632.3 146.901 625.228 139.469L566.272 77.5181C553.764 64.3746 536.804 56.365 518.702 55.0515L421.833 48.0228L335.142 41.7326C323.392 40.88 311.609 42.8838 300.798 47.5727L249.24 69.9338C224.303 80.7492 207.429 104.515 205.444 131.616L192.592 307.108L174.046 560.34C170.836 604.158 206.781 640.837 250.659 638.517L278.251 637.059C291.264 636.371 303.858 632.213 314.726 625.017L365.357 591.489C376.807 583.907 390.161 579.706 403.887 579.367L453.57 578.142C473.331 577.655 492.055 569.176 505.463 554.643L537.366 520.062Z" fill="url(#paint0_linear_28_10)"/>
<path d="M106.609 229.978C134.303 191.151 179.055 168.101 226.747 168.101C259.774 168.101 291.847 157.022 317.832 136.635L353.444 108.696C385.669 83.4151 425.443 69.6749 466.401 69.6749L723 69.6749C752.271 69.6749 776 93.4038 776 122.675V522.316C776 551.587 752.271 575.316 723 575.316L183.818 575.316C137.925 575.316 94.2458 555.593 63.8973 521.167C28.3748 480.872 15.464 425.43 29.5302 373.587L36.5076 347.871C42.1869 326.939 51.542 307.183 64.1363 289.526L106.609 229.978Z" fill="url(#paint1_linear_28_10)"/>
<path d="M99.3024 280.143C112.497 207.798 175.522 155.228 249.061 155.228H252.118L326.332 155.228C375.351 155.228 423.413 141.658 465.193 116.02L493.215 98.8252C528.717 77.0397 568.863 63.947 610.383 60.6132L714.358 52.2646C740.838 50.1385 763.5 71.0539 763.5 97.6186L763.5 511.739C763.5 557.713 724.619 594.104 678.745 591.065L85.6382 551.773C63.091 550.28 41.958 540.259 26.5326 523.746C-3.34021 491.767 -5.50728 442.808 21.4233 408.315L69.337 346.947C84.577 327.428 94.859 304.506 99.3024 280.143Z" stroke="white"/>
<path d="M721.5 117.054C721.5 139.467 700.308 157.762 674 157.762C647.692 157.762 626.5 139.467 626.5 117.054C626.5 111.446 627.823 106.985 630.188 103.438C632.555 99.8887 635.989 97.2196 640.269 95.2372C648.849 91.2631 660.754 90.082 674 90.082C687.246 90.082 699.151 91.2631 707.731 95.2372C712.011 97.2196 715.445 99.8887 717.812 103.438C720.177 106.985 721.5 111.446 721.5 117.054Z" stroke="white"/>
<path d="M325.018 618.275L339.266 604.305M339.159 618.381L325.124 604.199" stroke="white"/>
<path d="M618.018 510.776L632.266 496.806M632.159 510.882L618.124 496.7" stroke="white"/>
<defs>
<linearGradient id="paint0_linear_28_10" x1="699.201" y1="374.789" x2="190.364" y2="337.523" gradientUnits="userSpaceOnUse">
<stop stop-color="#882A48"/>
<stop offset="1" stop-color="#EE2277"/>
</linearGradient>
<linearGradient id="paint1_linear_28_10" x1="391.5" y1="69.6749" x2="391.5" y2="575.316" gradientUnits="userSpaceOnUse">
<stop stop-color="#882A48"/>
<stop offset="1" stop-color="#EE2277"/>
</linearGradient>
</defs>
</svg>
