<svg width="781" height="631" viewBox="0 0 781 631" fill="none" xmlns="http://www.w3.org/2000/svg">
<path d="M22 331.999C22 221.542 111.543 131.999 222 131.999H677C734.438 131.999 781 178.562 781 235.999V412.999C781 532.845 683.846 629.999 564 629.999H222C111.543 629.999 22 540.456 22 429.999V331.999Z" fill="url(#paint0_linear_34_20)"/>
<path d="M679.455 393.899C678.644 504.353 588.445 593.236 477.991 592.424L195.999 590.352C168.385 590.149 146.164 567.599 146.367 539.985L148.607 235.209C149.196 155.13 214.59 90.6901 294.669 91.2786L481.664 92.6528C592.118 93.4646 681 183.663 680.189 294.117L679.455 393.899Z" fill="url(#paint1_linear_34_20)"/>
<path d="M701.017 549.159L715.266 535.124M715.159 549.266L701.124 535.018" stroke="white"/>
<path d="M585.018 318.158L599.266 304.123M599.159 318.265L585.124 304.017" stroke="white"/>
<path d="M40.4902 411.24L40.4835 411.217L40.4746 411.195L11.0099 337.272C4.28205 320.393 4.23306 301.585 10.8729 284.671L21.2031 258.356C39.3429 212.148 74.0589 174.362 118.569 152.38L247.622 88.6478L493.278 119.27C513.695 121.815 534.387 121.105 554.582 117.165L604.077 107.508C654.541 97.6627 701.829 135.327 703.521 186.716L714.131 508.997C715.193 541.264 692.235 569.347 660.4 574.72L534.42 595.981C527.577 597.136 520.588 597.124 513.749 595.947L366.641 570.614C346.019 567.063 324.958 566.863 304.272 570.022L174.118 589.896C142.371 594.744 110.38 582.785 89.5978 558.3C83.292 550.871 78.6245 542.195 75.9 532.839L40.4902 411.24Z" stroke="white"/>
<path d="M236.035 194.318L264.532 166.248M264.319 194.531L236.248 166.034" stroke="white"/>
<path d="M670.347 476.515C654.757 481.476 639.175 481.289 626.593 477.001C614.01 472.714 604.46 464.34 600.831 452.936C597.203 441.533 600.159 429.18 607.95 418.41C615.741 407.639 628.35 398.483 643.941 393.523C659.524 388.564 670.303 390.269 678.096 395.978C685.924 401.712 690.847 411.558 694.527 423.124C698.207 434.691 699.879 445.571 696.804 454.774C693.743 463.936 685.93 471.557 670.347 476.515Z" stroke="white"/>
<path d="M78.5615 452.474C62.9521 457.441 47.6217 458.09 35.464 455.151C23.2959 452.208 14.3922 445.699 11.4385 436.416C8.48475 427.133 11.99 416.675 20.2206 407.242C28.4441 397.818 41.3312 389.489 56.9407 384.523C72.5534 379.555 83.0798 380.433 90.4356 384.802C97.8039 389.177 102.119 397.128 105.134 406.604C108.149 416.08 109.222 425.062 105.737 432.891C102.258 440.707 94.1742 447.506 78.5615 452.474Z" stroke="white"/>
<defs>
<linearGradient id="paint0_linear_34_20" x1="401.5" y1="131.999" x2="401.5" y2="629.999" gradientUnits="userSpaceOnUse">
<stop stop-color="#882A48"/>
<stop offset="1" stop-color="#EE2277"/>
</linearGradient>
<linearGradient id="paint1_linear_34_20" x1="411.993" y1="591.939" x2="415.666" y2="92.1678" gradientUnits="userSpaceOnUse">
<stop stop-color="#882A48"/>
<stop offset="1" stop-color="#EE2277"/>
</linearGradient>
</defs>
</svg>
