<svg width="772" height="661" viewBox="0 0 772 661" fill="none" xmlns="http://www.w3.org/2000/svg">
<path d="M245.431 467.015L15.6925 235.089C-8.63032 210.534 -2.34133 169.465 28.2147 153.315L81.767 125.009L191.74 66.8814L276.051 22.3178C295.402 12.0901 316.504 5.59702 338.257 3.17799L350.589 1.80667C386.902 -2.23154 423.385 7.76966 452.563 29.7612L454.159 30.9644C468.277 41.6051 480.135 54.9497 489.043 70.2203C507.23 101.4 511.984 138.625 502.216 173.375L493.435 204.615C489.85 217.368 487.673 230.475 486.941 243.703L484.64 285.283C482.639 321.457 469.798 356.192 447.788 384.969L445.184 388.374C420.445 420.719 385.496 443.749 346.014 453.721L313.653 461.895C298.226 465.791 282.352 467.631 266.443 467.366L245.431 467.015Z" fill="url(#paint0_linear_33_2)" stroke="url(#paint1_radial_33_2)"/>
<path d="M18 210C18 152.01 65.0101 105 123 105H570C680.457 105 770 194.543 770 305V384C770 494.457 680.457 584 570 584H64C38.5949 584 18 563.405 18 538V210Z" fill="url(#paint2_linear_33_2)"/>
<path d="M40 128.829C40 109.883 60.948 98.4298 76.8977 108.655V108.655C77.2529 108.883 77.6486 109.04 78.0632 109.119L117.629 116.605C122.533 117.533 127.512 118 132.503 118H231.582L544.463 98.3488C659.625 91.1159 757 183.17 757 298.559V298.559C757 302.834 756.657 307.12 755.975 311.341L745.657 375.185C731.495 462.81 661.273 530.618 573.206 541.707L467.646 555L322.308 563L170.804 555H80.7308C58.2358 555 40 536.764 40 514.269V128.829Z" stroke="white"/>
<path d="M678.786 496.318L707.283 468.248M707.07 496.532L679 468.035" stroke="white"/>
<path d="M64.0172 165.159L78.2656 151.124M78.1589 165.266L64.1239 151.018" stroke="white"/>
<path d="M245.379 596.101C227.366 534.333 221.69 513.969 290.351 493.946C359.012 473.923 428.119 441.314 446.132 503.082C464.145 564.85 423.087 631.155 354.427 651.179C285.766 671.202 263.392 657.869 245.379 596.101Z" fill="url(#paint3_linear_33_2)"/>
<path d="M293.5 603C293.5 618.448 280.533 631 264.5 631C248.467 631 235.5 618.448 235.5 603C235.5 599.136 236.31 596.073 237.748 593.646C239.186 591.22 241.27 589.397 243.871 588.041C249.096 585.318 256.366 584.5 264.5 584.5C272.634 584.5 279.904 585.318 285.129 588.041C287.73 589.397 289.814 591.22 291.252 593.646C292.69 596.073 293.5 599.136 293.5 603Z" stroke="white"/>
<defs>
<linearGradient id="paint0_linear_33_2" x1="419.464" y1="436.311" x2="218.525" y2="56.1487" gradientUnits="userSpaceOnUse">
<stop stop-color="#882A48"/>
<stop offset="1" stop-color="#EE2277"/>
</linearGradient>
<radialGradient id="paint1_radial_33_2" cx="0" cy="0" r="1" gradientUnits="userSpaceOnUse" gradientTransform="translate(200.069 510.989) rotate(-65.0388) scale(613.089 1232.67)">
<stop stop-color="#EE2277"/>
<stop offset="1" stop-color="#EE2277" stop-opacity="0"/>
</radialGradient>
<linearGradient id="paint2_linear_33_2" x1="394" y1="105" x2="394" y2="584" gradientUnits="userSpaceOnUse">
<stop stop-color="#882A48"/>
<stop offset="1" stop-color="#EE2277"/>
</linearGradient>
<linearGradient id="paint3_linear_33_2" x1="373.739" y1="645.547" x2="326.212" y2="482.573" gradientUnits="userSpaceOnUse">
<stop stop-color="#882A48"/>
<stop offset="1" stop-color="#EE2277"/>
</linearGradient>
</defs>
</svg>
