<svg width="617" height="1058" viewBox="0 0 617 1058" fill="none" xmlns="http://www.w3.org/2000/svg">
<path d="M573 52H283C172.543 52 83 141.543 83 252V1030H373C483.457 1030 573 940.457 573 830V52Z" fill="url(#paint0_linear_24_4)"/>
<path d="M581.341 76.0134L46.9698 1.83003C18.8936 -2.06762 -4.02771 24.0004 3.42993 51.3472L122.247 487.042C123.541 491.789 123.96 496.732 123.482 501.629L73.4988 1014.17C71.2344 1037.39 89.4819 1057.5 112.812 1057.5H548.005C569.345 1057.5 586.827 1040.55 587.486 1019.22L615.39 116.358C616.014 96.1863 601.331 78.7884 581.341 76.0134Z" stroke="white"/>
<defs>
<linearGradient id="paint0_linear_24_4" x1="328" y1="52" x2="328" y2="1030" gradientUnits="userSpaceOnUse">
<stop stop-color="#882A48"/>
<stop offset="1" stop-color="#EE2277"/>
</linearGradient>
</defs>
</svg>
