<svg width="643" height="660" viewBox="0 0 643 660" fill="none" xmlns="http://www.w3.org/2000/svg">
<path d="M213.104 521.566C133.306 392.802 107.588 350.195 249.102 264.326C390.617 178.458 525.123 63.9139 604.921 192.678C684.719 321.443 634.688 495.438 493.173 581.306C351.659 667.175 292.902 650.331 213.104 521.566Z" fill="url(#paint0_linear_57_2)"/>
<path d="M56.2441 197.874C35.8357 137.915 77.8553 74.3684 141.074 70.5131L253.496 63.6572C262.454 63.1109 271.292 61.311 279.751 58.31L409.811 12.1671C432.744 4.03099 457.911 4.90701 480.222 14.618L521.68 32.6624C562.345 50.3619 585.593 93.6137 577.92 137.295L555.06 267.433C553.363 277.093 553.157 286.957 554.448 296.679L576.574 463.297C584.214 520.831 539.448 571.934 481.409 571.934L119.833 571.934C60.6775 571.934 15.5976 518.95 25.0726 460.558L60.1642 244.299C62.6828 228.777 61.3109 212.76 56.2441 197.874V197.874Z" fill="url(#paint1_linear_57_2)"/>
<path d="M566.766 281.955L566.762 281.979L566.76 282.003L554.263 444.929C551.134 485.719 522.371 519.986 482.74 530.138L161.237 612.491C96.8735 628.978 35.7616 576.333 42.5379 510.238L50.8159 429.496L50.8185 429.471V429.445L50.8185 233.948C50.8185 222.769 48.8759 211.675 45.0775 201.16L36.9352 178.622C14.4462 116.371 60.565 50.6738 126.754 50.6738L265.137 50.6738L430.5 50.6738L493.661 50.6738C553.014 50.6738 597.992 104.243 587.72 162.701L566.766 281.955Z" stroke="white"/>
<path d="M427.5 619.034C427.5 641.312 406.311 659.5 380 659.5C353.689 659.5 332.5 641.312 332.5 619.034C332.5 613.46 333.822 609.026 336.187 605.501C338.554 601.974 341.988 599.32 346.268 597.349C354.849 593.398 366.754 592.224 380 592.224C393.246 592.224 405.151 593.398 413.732 597.349C418.012 599.32 421.446 601.974 423.813 605.501C426.178 609.026 427.5 613.46 427.5 619.034Z" stroke="white"/>
<path d="M318.035 106.192L346.532 78.4167M346.318 106.403L318.248 78.2057" stroke="white"/>
<defs>
<linearGradient id="paint0_linear_57_2" x1="532.977" y1="557.154" x2="325.645" y2="215.464" gradientUnits="userSpaceOnUse">
<stop stop-color="#882A48"/>
<stop offset="1" stop-color="#EE2277"/>
</linearGradient>
<linearGradient id="paint1_linear_57_2" x1="299" y1="-0.494629" x2="299" y2="571.934" gradientUnits="userSpaceOnUse">
<stop stop-color="#882A48"/>
<stop offset="1" stop-color="#EE2277"/>
</linearGradient>
</defs>
</svg>
