<svg width="24" height="24" viewBox="0 0 24 24" fill="none" xmlns="http://www.w3.org/2000/svg">
<path d="M23.0658 7.35002C22.4636 5.91571 21.5875 4.61203 20.4863 3.51163C19.3884 2.40931 18.0842 1.5329 16.6478 0.932167C15.1764 0.31377 13.5954 -0.00322058 11.9987 2.46678e-05H11.9451C10.3211 0.00806037 8.75082 0.329489 7.27181 0.961631C5.84775 1.56853 4.55583 2.44649 3.46826 3.54645C2.37774 4.64438 1.51165 5.9435 0.918244 7.37145C0.302254 8.85634 -0.00987075 10.4492 0.000237907 12.0563C0.0082906 13.9152 0.453873 15.7607 1.28598 17.4107V21.4821C1.28598 22.1625 1.83894 22.7143 2.51805 22.7143H6.59271C8.25391 23.5508 10.0871 23.9909 11.9477 24H12.0041C13.6093 24 15.1634 23.6893 16.629 23.0813C18.0582 22.4877 19.3575 21.6215 20.4541 20.5313C21.56 19.4357 22.4297 18.1554 23.039 16.7277C23.6698 15.2491 23.9919 13.6768 23.9999 12.0536C24.0053 10.4223 23.6886 8.8393 23.0658 7.35002ZM6.64102 13.2857C5.93238 13.2857 5.35528 12.7098 5.35528 12C5.35528 11.2902 5.93238 10.7143 6.64102 10.7143C7.34966 10.7143 7.92677 11.2902 7.92677 12C7.92677 12.7098 7.35234 13.2857 6.64102 13.2857ZM11.9987 13.2857C11.2901 13.2857 10.713 12.7098 10.713 12C10.713 11.2902 11.2901 10.7143 11.9987 10.7143C12.7074 10.7143 13.2845 11.2902 13.2845 12C13.2845 12.7098 12.7074 13.2857 11.9987 13.2857ZM17.3565 13.2857C16.6478 13.2857 16.0707 12.7098 16.0707 12C16.0707 11.2902 16.6478 10.7143 17.3565 10.7143C18.0651 10.7143 18.6422 11.2902 18.6422 12C18.6422 12.7098 18.0651 13.2857 17.3565 13.2857Z" fill="white"/>
</svg>
