<svg width="34" height="30" viewBox="0 0 34 30" fill="none" xmlns="http://www.w3.org/2000/svg">
<path d="M0.66262 14.1264L8.36444 16.9983L11.3668 26.6582C11.4973 27.3108 12.2806 27.4414 12.8027 27.0498L17.1105 23.5252C17.5021 23.1336 18.1548 23.1336 18.677 23.5252L26.3788 29.1384C26.9009 29.53 27.6842 29.2689 27.8147 28.6162L33.5584 1.2031C33.6889 0.550408 33.0362 -0.10228 32.3836 0.158798L0.66262 12.4294C-0.120613 12.6905 -0.120613 13.8654 0.66262 14.1264ZM10.9752 15.5624L26.1177 6.29411C26.3787 6.16358 26.6398 6.5552 26.3788 6.68573L13.9776 18.3037C13.586 18.6953 13.1943 19.2174 13.1943 19.8701L12.8027 23.0031C12.8027 23.3947 12.15 23.5252 12.0195 23.0031L10.453 17.2594C10.0614 16.6067 10.3225 15.8234 10.9752 15.5624Z" fill="white"/>
</svg>
