<svg width="36" height="36" viewBox="0 0 36 36" fill="none" xmlns="http://www.w3.org/2000/svg">
<path d="M30.7774 5.20464C27.4683 1.90698 23.0561 0.0749512 18.3988 0.0749512C8.71646 0.0749512 0.872559 7.89162 0.872559 17.5403C0.872559 20.5937 1.73049 23.6471 3.20122 26.2119L0.75 35.25L10.0646 32.8072C12.6384 34.1507 15.4573 34.8835 18.3988 34.8835C28.0811 34.8835 35.925 27.0669 35.925 17.4182C35.8024 12.8992 34.0866 8.50229 30.7774 5.20464ZM26.8555 23.7692C26.4878 24.7463 24.7719 25.7234 23.914 25.8455C23.1787 25.9677 22.1982 25.9677 21.2177 25.7234C20.6049 25.4791 19.747 25.2348 18.7665 24.7463C14.3543 22.9143 11.5354 18.5174 11.2902 18.151C11.0451 17.9067 9.45183 15.8304 9.45183 13.632C9.45183 11.4335 10.5549 10.4565 10.9226 9.96792C11.2902 9.47938 11.7805 9.47938 12.1482 9.47938C12.3933 9.47938 12.761 9.47938 13.0061 9.47938C13.2512 9.47938 13.6189 9.35724 13.9866 10.2122C14.3543 11.0671 15.2122 13.2656 15.3348 13.3877C15.4573 13.632 15.4573 13.8763 15.3348 14.1205C15.2122 14.3648 15.0896 14.6091 14.8445 14.8533C14.5994 15.0976 14.3543 15.464 14.2317 15.5861C13.9866 15.8304 13.7415 16.0747 13.9866 16.4411C14.2317 16.9296 15.0896 18.2731 16.4378 19.4945C18.1537 20.9601 19.5018 21.4487 19.9921 21.6929C20.4823 21.9372 20.7274 21.8151 20.9726 21.5708C21.2177 21.3265 22.0756 20.3494 22.3207 19.8609C22.5659 19.3723 22.9335 19.4945 23.3012 19.6166C23.6689 19.7388 25.875 20.838 26.2427 21.0822C26.7329 21.3265 26.978 21.4486 27.1006 21.5708C27.2232 21.9372 27.2232 22.7921 26.8555 23.7692Z" fill="white"/>
</svg>
